<svg version="1.0" xmlns="http://www.w3.org/2000/svg" width="450" height="450">
    <circle cx="175.68" cy="161773.76" r="5.735294117647058" style="stroke: gray; fill: red;"></circle>
    <circle cx="185.69" cy="144964.95" r="4.356617647058824" style="stroke: gray; fill: red;"></circle>
    <circle cx="185.65" cy="326.33" r="8.492647058823529" style="stroke: gray; fill: red;"></circle>
    <circle cx="78224.06" cy="-94901.52" r="4.3014705882352935" style="stroke: gray; fill: red;"></circle>
    <circle cx="177.33" cy="129.91" r="15" style="stroke: gray; fill: red;"></circle>
    <circle cx="246.04" cy="182069.91" r="5.0735294117647065" style="stroke: gray; fill: red;"></circle>
    <circle cx="-66168.58" cy="95223.23" r="0.4963235294117647" style="stroke: gray; fill: red;"></circle>
    <circle cx="12749.29" cy="172.64" r="0.4411764705882353" style="stroke: gray; fill: red;"></circle>
    <circle cx="48583.82" cy="117012.3" r="0.9926470588235294" style="stroke: gray; fill: red;"></circle>
    <circle cx="95515.27" cy="188.58" r="1.5992647058823528" style="stroke: gray; fill: red;"></circle>
    <circle cx="292.29" cy="-103222.07" r="3.1985294117647056" style="stroke: gray; fill: red;"></circle>
    <circle cx="124591.71" cy="204.48" r="1.1029411764705883" style="stroke: gray; fill: red;"></circle>
    <circle cx="355.2" cy="184.48" r="0.5514705882352942" style="stroke: gray; fill: red;"></circle>
    <circle cx="24399.64" cy="173.55" r="1.488970588235294" style="stroke: gray; fill: red;"></circle>
    <circle cx="178.75" cy="-94148.21" r="4.1360294117647065" style="stroke: gray; fill: red;"></circle>
    <circle cx="190.14" cy="122102.95" r="6.0110294117647065" style="stroke: gray; fill: red;"></circle>
    <circle cx="155.98" cy="-26170.87" r="0.6066176470588236" style="stroke: gray; fill: red;"></circle>
    <circle cx="48827.11" cy="-80389.51" r="0.4411764705882353" style="stroke: gray; fill: red;"></circle>
    <circle cx="752.9" cy="-112629.35" r="1.9852941176470589" style="stroke: gray; fill: red;"></circle>
    <circle cx="-72851.61" cy="-5534.05" r="0.661764705882353" style="stroke: gray; fill: red;"></circle>
    <circle cx="162.07" cy="46789.38" r="0.661764705882353" style="stroke: gray; fill: red;"></circle>
    <circle cx="68381.58" cy="145279.98" r="0.4963235294117647" style="stroke: gray; fill: red;"></circle>
    <circle cx="176068.13" cy="-2479.51" r="0.7720588235294117" style="stroke: gray; fill: red;"></circle>
    <circle cx="102.22" cy="189.46" r="3.1985294117647056" style="stroke: gray; fill: red;"></circle>
    <circle cx="204.86" cy="260.65" r="2.2058823529411766" style="stroke: gray; fill: red;"></circle>
    <circle cx="150.53" cy="211.6" r="8.933823529411764" style="stroke: gray; fill: red;"></circle>
    <circle cx="149.35" cy="156.23" r="7.775735294117648" style="stroke: gray; fill: red;"></circle>
    <circle cx="222.45" cy="205.72" r="11.856617647058822" style="stroke: gray; fill: red;"></circle>
    <circle cx="78385.51" cy="813.97" r="14.448529411764707" style="stroke: gray; fill: red;"></circle>
    <circle cx="75.6" cy="110663.5" r="6.5625" style="stroke: gray; fill: red;"></circle>
    <circle cx="-30396.93" cy="189.57" r="0.6066176470588236" style="stroke: gray; fill: red;"></circle>
    <circle cx="212.61" cy="234.46" r="8.106617647058822" style="stroke: gray; fill: red;"></circle>
    <circle cx="182.22" cy="135179.18" r="5.845588235294118" style="stroke: gray; fill: red;"></circle>
    <circle cx="699.23" cy="153522.61" r="5.1838235294117645" style="stroke: gray; fill: red;"></circle>
    <circle cx="56363.92" cy="236.66" r="0.661764705882353" style="stroke: gray; fill: red;"></circle>
    <circle cx="177.72" cy="-74563.07" r="1.1580882352941178" style="stroke: gray; fill: red;"></circle>
    <circle cx="199.79" cy="-86564.31" r="3.584558823529412" style="stroke: gray; fill: red;"></circle>
    <circle cx="108.8" cy="117.17" r="5.514705882352942" style="stroke: gray; fill: red;"></circle>
    <circle cx="3740.17" cy="-51118.23" r="1.0477941176470589" style="stroke: gray; fill: red;"></circle>
    <circle cx="130.77" cy="301.49" r="2.8125" style="stroke: gray; fill: red;"></circle>
    <circle cx="102508.43" cy="46271.3" r="0.2757352941176471" style="stroke: gray; fill: red;"></circle>
    <circle cx="185.46" cy="-11131.08" r="0.2757352941176471" style="stroke: gray; fill: red;"></circle>
    <circle cx="199.1" cy="176.42" r="6.507352941176471" style="stroke: gray; fill: red;"></circle>
    <circle cx="1933.06" cy="172929.85" r="3.75" style="stroke: gray; fill: red;"></circle>
    <circle cx="-531.61" cy="92460.24" r="3.3088235294117645" style="stroke: gray; fill: red;"></circle>
    <circle cx="205.86" cy="107.37" r="6.893382352941176" style="stroke: gray; fill: red;"></circle>
    <circle cx="148.39" cy="-4761.44" r="0" style="stroke: gray; fill: red;"></circle>
    <circle cx="39767.59" cy="172.83" r="1.488970588235294" style="stroke: gray; fill: red;"></circle>
    <circle cx="188.79" cy="23862.05" r="1.3786764705882355" style="stroke: gray; fill: red;"></circle>
    <circle cx="-12963.92" cy="-486.45" r="0.9375" style="stroke: gray; fill: red;"></circle>
</svg>