<svg version="1.0" xmlns="http://www.w3.org/2000/svg" width="450" height="450">
    <circle cx="88.8" cy="269.74" r="3.0592105263157894" style="stroke: gray; fill: red;"></circle>
    <circle cx="-9393.83" cy="200.23" r="0.9868421052631579" style="stroke: gray; fill: red;"></circle>
    <circle cx="199.2" cy="106.9" r="6.7105263157894735" style="stroke: gray; fill: red;"></circle>
    <circle cx="-37015.69" cy="171.36" r="1.381578947368421" style="stroke: gray; fill: red;"></circle>
    <circle cx="110.67" cy="117.7" r="12.236842105263158" style="stroke: gray; fill: red;"></circle>
    <circle cx="193.91" cy="210.16" r="5.427631578947369" style="stroke: gray; fill: red;"></circle>
    <circle cx="161.14" cy="-41651.46" r="1.776315789473684" style="stroke: gray; fill: red;"></circle>
    <circle cx="175.24" cy="132.16" r="14.013157894736842" style="stroke: gray; fill: red;"></circle>
    <circle cx="-31720.25" cy="112197.31" r="0.09868421052631579" style="stroke: gray; fill: red;"></circle>
    <circle cx="-984.82" cy="-107184.03" r="8.289473684210527" style="stroke: gray; fill: red;"></circle>
    <circle cx="161663.72" cy="178.72" r="0.4934210526315789" style="stroke: gray; fill: red;"></circle>
    <circle cx="140.12" cy="-20819.01" r="0.6907894736842105" style="stroke: gray; fill: red;"></circle>
    <circle cx="108431.67" cy="6658.97" r="3.2565789473684212" style="stroke: gray; fill: red;"></circle>
    <circle cx="1120.47" cy="130143.16" r="2.861842105263158" style="stroke: gray; fill: red;"></circle>
    <circle cx="142.01" cy="227.92" r="15" style="stroke: gray; fill: red;"></circle>
    <circle cx="113.19" cy="11400.08" r="0" style="stroke: gray; fill: red;"></circle>
    <circle cx="112.62" cy="2112.19" r="0" style="stroke: gray; fill: red;"></circle>
    <circle cx="-2470.53" cy="40317.54" r="0.6907894736842105" style="stroke: gray; fill: red;"></circle>
    <circle cx="212.19" cy="242.27" r="6.019736842105264" style="stroke: gray; fill: red;"></circle>
    <circle cx="24757.2" cy="175.07" r="1.776315789473684" style="stroke: gray; fill: red;"></circle>
    <circle cx="108.69" cy="87742.39" r="5.526315789473684" style="stroke: gray; fill: red;"></circle>
    <circle cx="200.31" cy="166.67" r="7.598684210526315" style="stroke: gray; fill: red;"></circle>
    <circle cx="-720.14" cy="159209.01" r="3.2565789473684212" style="stroke: gray; fill: red;"></circle>
    <circle cx="180.56" cy="137997.06" r="4.342105263157895" style="stroke: gray; fill: red;"></circle>
    <circle cx="-71957.98" cy="95153.49" r="0.888157894736842" style="stroke: gray; fill: red;"></circle>
    <circle cx="227.26" cy="205.1" r="9.473684210526315" style="stroke: gray; fill: red;"></circle>
    <circle cx="-68309.25" cy="-658.28" r="1.5789473684210527" style="stroke: gray; fill: red;"></circle>
    <circle cx="80031.47" cy="1009.51" r="11.842105263157896" style="stroke: gray; fill: red;"></circle>
    <circle cx="679" cy="146548.69" r="3.0592105263157894" style="stroke: gray; fill: red;"></circle>
    <circle cx="115.73" cy="97764.56" r="3.552631578947368" style="stroke: gray; fill: red;"></circle>
    <circle cx="170.96" cy="120120.7" r="5.328947368421052" style="stroke: gray; fill: red;"></circle>
    <circle cx="104.14" cy="185.06" r="11.447368421052632" style="stroke: gray; fill: red;"></circle>
    <circle cx="11065.63" cy="157.31" r="0.6907894736842105" style="stroke: gray; fill: red;"></circle>
    <circle cx="327.55" cy="165645.44" r="3.75" style="stroke: gray; fill: red;"></circle>
    <circle cx="66221.23" cy="146914.36" r="0.9868421052631579" style="stroke: gray; fill: red;"></circle>
    <circle cx="-2888.8" cy="184238.38" r="2.861842105263158" style="stroke: gray; fill: red;"></circle>
    <circle cx="1128.43" cy="176620.78" r="3.9473684210526314" style="stroke: gray; fill: red;"></circle>
    <circle cx="173.85" cy="318.62" r="10.361842105263158" style="stroke: gray; fill: red;"></circle>
    <circle cx="-36.28" cy="152523.25" r="3.6513157894736845" style="stroke: gray; fill: red;"></circle>
    <circle cx="821.4" cy="110463.63" r="9.868421052631579" style="stroke: gray; fill: red;"></circle>
    <circle cx="166.57" cy="22671.99" r="1.480263157894737" style="stroke: gray; fill: red;"></circle>
    <circle cx="147.26" cy="186.92" r="8.289473684210527" style="stroke: gray; fill: red;"></circle>
    <circle cx="50733.33" cy="4689.63" r="0.9868421052631579" style="stroke: gray; fill: red;"></circle>
    <circle cx="428.38" cy="-89647.06" r="9.868421052631579" style="stroke: gray; fill: red;"></circle>
    <circle cx="-21449.1" cy="-876.42" r="1.776315789473684" style="stroke: gray; fill: red;"></circle>
    <circle cx="74784.46" cy="105200.53" r="0.7894736842105263" style="stroke: gray; fill: red;"></circle>
    <circle cx="183.54" cy="67991.63" r="0.19736842105263158" style="stroke: gray; fill: red;"></circle>
    <circle cx="72988.48" cy="-92641.31" r="2.4671052631578947" style="stroke: gray; fill: red;"></circle>
    <circle cx="147.88" cy="151.61" r="9.769736842105262" style="stroke: gray; fill: red;"></circle>
    <circle cx="6506.63" cy="-62319.31" r="1.2828947368421053" style="stroke: gray; fill: red;"></circle>
</svg>