<svg version="1.0" xmlns="http://www.w3.org/2000/svg" width="450" height="450">
    <circle cx="498.3" cy="173063.33" r="4.788732394366197" style="stroke: gray; fill: red;"></circle>
    <circle cx="389.73" cy="159886.7" r="4.436619718309859" style="stroke: gray; fill: red;"></circle>
    <circle cx="169.32" cy="324.68" r="8.098591549295776" style="stroke: gray; fill: red;"></circle>
    <circle cx="111.96" cy="189.62" r="10.845070422535212" style="stroke: gray; fill: red;"></circle>
    <circle cx="-74219.91" cy="222.19" r="1.1267605633802817" style="stroke: gray; fill: red;"></circle>
    <circle cx="75423.61" cy="-98717.47" r="0.7746478873239437" style="stroke: gray; fill: red;"></circle>
    <circle cx="27987.87" cy="683.31" r="1.408450704225352" style="stroke: gray; fill: red;"></circle>
    <circle cx="165.86" cy="-9122.33" r="0.2112676056338028" style="stroke: gray; fill: red;"></circle>
    <circle cx="-178.43" cy="183836.01" r="3.8028169014084505" style="stroke: gray; fill: red;"></circle>
    <circle cx="990.37" cy="87518.06" r="4.084507042253521" style="stroke: gray; fill: red;"></circle>
    <circle cx="288.33" cy="217.75" r="0.9859154929577465" style="stroke: gray; fill: red;"></circle>
    <circle cx="142.62" cy="103.53" r="3.6619718309859155" style="stroke: gray; fill: red;"></circle>
    <circle cx="72279.97" cy="126864.51" r="1.4788732394366195" style="stroke: gray; fill: red;"></circle>
    <circle cx="-40931.27" cy="162.55" r="0.9859154929577465" style="stroke: gray; fill: red;"></circle>
    <circle cx="78193.34" cy="964.34" r="8.309859154929578" style="stroke: gray; fill: red;"></circle>
    <circle cx="-105.39" cy="-96434.4" r="5" style="stroke: gray; fill: red;"></circle>
    <circle cx="91891" cy="-164.99" r="2.816901408450704" style="stroke: gray; fill: red;"></circle>
    <circle cx="157.6" cy="188.56" r="5.915492957746478" style="stroke: gray; fill: red;"></circle>
    <circle cx="215.88" cy="203.25" r="10.070422535211268" style="stroke: gray; fill: red;"></circle>
    <circle cx="142.49" cy="227.14" r="13.309859154929578" style="stroke: gray; fill: red;"></circle>
    <circle cx="146.77" cy="41901.36" r="1.1267605633802817" style="stroke: gray; fill: red;"></circle>
    <circle cx="172.24" cy="150226.62" r="3.3098591549295775" style="stroke: gray; fill: red;"></circle>
    <circle cx="188.39" cy="123.13" r="15" style="stroke: gray; fill: red;"></circle>
    <circle cx="-1371.57" cy="127207.76" r="4.154929577464789" style="stroke: gray; fill: red;"></circle>
    <circle cx="192.09" cy="161.36" r="7.676056338028168" style="stroke: gray; fill: red;"></circle>
    <circle cx="-53986.24" cy="-84225.57" r="0" style="stroke: gray; fill: red;"></circle>
    <circle cx="854.43" cy="-84953.73" r="3.23943661971831" style="stroke: gray; fill: red;"></circle>
    <circle cx="1903.39" cy="138593.08" r="4.084507042253521" style="stroke: gray; fill: red;"></circle>
    <circle cx="4680.3" cy="116746.76" r="2.957746478873239" style="stroke: gray; fill: red;"></circle>
    <circle cx="-69151.26" cy="93136.2" r="1.267605633802817" style="stroke: gray; fill: red;"></circle>
    <circle cx="118198.37" cy="198.67" r="1.4788732394366195" style="stroke: gray; fill: red;"></circle>
    <circle cx="1020.24" cy="-53450.93" r="1.0563380281690142" style="stroke: gray; fill: red;"></circle>
    <circle cx="-139.09" cy="109830.98" r="6.830985915492958" style="stroke: gray; fill: red;"></circle>
    <circle cx="83.04" cy="271.22" r="3.380281690140845" style="stroke: gray; fill: red;"></circle>
    <circle cx="-7849.35" cy="210.05" r="0.07042253521126761" style="stroke: gray; fill: red;"></circle>
    <circle cx="175.08" cy="12625.1" r="0.4225352112676056" style="stroke: gray; fill: red;"></circle>
    <circle cx="-250.07" cy="98127.07" r="3.4507042253521125" style="stroke: gray; fill: red;"></circle>
    <circle cx="149.47" cy="146.47" r="9.295774647887324" style="stroke: gray; fill: red;"></circle>
    <circle cx="-1527.53" cy="-29792.66" r="0.7746478873239437" style="stroke: gray; fill: red;"></circle>
    <circle cx="-15410.51" cy="-829.29" r="0.6338028169014085" style="stroke: gray; fill: red;"></circle>
    <circle cx="104.21" cy="126.53" r="8.450704225352114" style="stroke: gray; fill: red;"></circle>
    <circle cx="143601.32" cy="210.21" r="0.8450704225352113" style="stroke: gray; fill: red;"></circle>
    <circle cx="187064.2" cy="1027.58" r="0.49295774647887325" style="stroke: gray; fill: red;"></circle>
    <circle cx="14570.64" cy="191.08" r="0.5633802816901409" style="stroke: gray; fill: red;"></circle>
    <circle cx="208.81" cy="241.35" r="7.183098591549295" style="stroke: gray; fill: red;"></circle>
    <circle cx="77425.57" cy="-86931.12" r="0.7746478873239437" style="stroke: gray; fill: red;"></circle>
    <circle cx="45851.3" cy="1327.01" r="0.9859154929577465" style="stroke: gray; fill: red;"></circle>
    <circle cx="184.78" cy="24377.11" r="0.9859154929577465" style="stroke: gray; fill: red;"></circle>
    <circle cx="-24613.93" cy="203.12" r="0.49295774647887325" style="stroke: gray; fill: red;"></circle>
    <circle cx="519.92" cy="-110678.48" r="4.014084507042253" style="stroke: gray; fill: red;"></circle>
</svg>