<svg version="1.0" xmlns="http://www.w3.org/2000/svg" width="450" height="450">
    <circle cx="278.07" cy="172052" r="3.1777777777777776" style="stroke: gray; fill: red;"></circle>
    <circle cx="323.78" cy="160824.25" r="4.377777777777778" style="stroke: gray; fill: red;"></circle>
    <circle cx="141.37" cy="10553.89" r="0.11111111111111112" style="stroke: gray; fill: red;"></circle>
    <circle cx="108.78" cy="189.67" r="9.466666666666667" style="stroke: gray; fill: red;"></circle>
    <circle cx="-73933.68" cy="-1441.15" r="1.1555555555555557" style="stroke: gray; fill: red;"></circle>
    <circle cx="78251.57" cy="-94614.51" r="1.8666666666666667" style="stroke: gray; fill: red;"></circle>
    <circle cx="55472.18" cy="1057.43" r="0.4666666666666667" style="stroke: gray; fill: red;"></circle>
    <circle cx="-138.56" cy="-39310.46" r="0.6888888888888889" style="stroke: gray; fill: red;"></circle>
    <circle cx="-197.92" cy="182517.82" r="3.8222222222222224" style="stroke: gray; fill: red;"></circle>
    <circle cx="106.06" cy="86847.75" r="3.6444444444444444" style="stroke: gray; fill: red;"></circle>
    <circle cx="24366.86" cy="427.58" r="0.9555555555555556" style="stroke: gray; fill: red;"></circle>
    <circle cx="153.11" cy="-9453.98" r="0.15555555555555556" style="stroke: gray; fill: red;"></circle>
    <circle cx="87558.02" cy="128089.7" r="0.8" style="stroke: gray; fill: red;"></circle>
    <circle cx="-40451.32" cy="164.86" r="0.8666666666666666" style="stroke: gray; fill: red;"></circle>
    <circle cx="78685.27" cy="671.35" r="7.733333333333333" style="stroke: gray; fill: red;"></circle>
    <circle cx="-926.86" cy="-102009.67" r="3.4666666666666663" style="stroke: gray; fill: red;"></circle>
    <circle cx="93448.68" cy="27.62" r="2.0444444444444447" style="stroke: gray; fill: red;"></circle>
    <circle cx="218.02" cy="218.8" r="15" style="stroke: gray; fill: red;"></circle>
    <circle cx="13434.22" cy="163.21" r="0.5777777777777778" style="stroke: gray; fill: red;"></circle>
    <circle cx="136.57" cy="231.29" r="13.866666666666665" style="stroke: gray; fill: red;"></circle>
    <circle cx="-404.5" cy="46882.63" r="0.6" style="stroke: gray; fill: red;"></circle>
    <circle cx="393.77" cy="149808.42" r="4.133333333333333" style="stroke: gray; fill: red;"></circle>
    <circle cx="182.82" cy="110.63" r="13.222222222222223" style="stroke: gray; fill: red;"></circle>
    <circle cx="-151.81" cy="122143.59" r="4.333333333333333" style="stroke: gray; fill: red;"></circle>
    <circle cx="194.41" cy="161.27" r="8.844444444444445" style="stroke: gray; fill: red;"></circle>
    <circle cx="-1096.07" cy="-74864" r="0.6444444444444444" style="stroke: gray; fill: red;"></circle>
    <circle cx="-327.64" cy="-89687.6" r="5.022222222222222" style="stroke: gray; fill: red;"></circle>
    <circle cx="6.28" cy="136486.74" r="4.955555555555556" style="stroke: gray; fill: red;"></circle>
    <circle cx="41434.74" cy="126039.41" r="0.8666666666666666" style="stroke: gray; fill: red;"></circle>
    <circle cx="-70991.86" cy="93894.97" r="0.9111111111111111" style="stroke: gray; fill: red;"></circle>
    <circle cx="118152.8" cy="210.62" r="1.2" style="stroke: gray; fill: red;"></circle>
    <circle cx="1984.38" cy="-54499.42" r="0.8222222222222222" style="stroke: gray; fill: red;"></circle>
    <circle cx="149.34" cy="110596.91" r="7.311111111111111" style="stroke: gray; fill: red;"></circle>
    <circle cx="-10306.85" cy="192.71" r="0.5111111111111112" style="stroke: gray; fill: red;"></circle>
    <circle cx="113.31" cy="2185.16" r="0" style="stroke: gray; fill: red;"></circle>
    <circle cx="187.24" cy="20653.67" r="0.8222222222222222" style="stroke: gray; fill: red;"></circle>
    <circle cx="-259.42" cy="97096.08" r="3.2222222222222223" style="stroke: gray; fill: red;"></circle>
    <circle cx="150.29" cy="159" r="12.333333333333332" style="stroke: gray; fill: red;"></circle>
    <circle cx="-914.83" cy="-23401.26" r="0.4444444444444445" style="stroke: gray; fill: red;"></circle>
    <circle cx="-18507.77" cy="-151.68" r="0.6888888888888889" style="stroke: gray; fill: red;"></circle>
    <circle cx="82.97" cy="122.37" r="8.044444444444444" style="stroke: gray; fill: red;"></circle>
    <circle cx="146241.11" cy="74.12" r="0.5555555555555556" style="stroke: gray; fill: red;"></circle>
    <circle cx="186641.64" cy="-1988.28" r="0.33333333333333337" style="stroke: gray; fill: red;"></circle>
    <circle cx="39436.86" cy="180.97" r="0.8666666666666666" style="stroke: gray; fill: red;"></circle>
    <circle cx="169.67" cy="322.06" r="7.733333333333333" style="stroke: gray; fill: red;"></circle>
    <circle cx="46642.16" cy="-83929.61" r="0.26666666666666666" style="stroke: gray; fill: red;"></circle>
    <circle cx="94453.22" cy="48000.13" r="0.17777777777777776" style="stroke: gray; fill: red;"></circle>
    <circle cx="-535.78" cy="32389.46" r="0.6222222222222222" style="stroke: gray; fill: red;"></circle>
    <circle cx="-26541.18" cy="-619.4" r="0.5111111111111112" style="stroke: gray; fill: red;"></circle>
    <circle cx="-378.01" cy="-113185.44" r="2.0444444444444447" style="stroke: gray; fill: red;"></circle>
</svg>