<svg version="1.0" xmlns="http://www.w3.org/2000/svg" width="450" height="450">
    <circle cx="143.28" cy="286.64" r="4.2622950819672125" style="stroke: gray; fill: red;"></circle>
    <circle cx="-39027.34" cy="165.23" r="1.4344262295081966" style="stroke: gray; fill: red;"></circle>
    <circle cx="27623.86" cy="726.76" r="0.819672131147541" style="stroke: gray; fill: red;"></circle>
    <circle cx="118.08" cy="115.06" r="7.991803278688526" style="stroke: gray; fill: red;"></circle>
    <circle cx="-1806.25" cy="-23826.12" r="0.45081967213114754" style="stroke: gray; fill: red;"></circle>
    <circle cx="141.86" cy="224.66" r="15" style="stroke: gray; fill: red;"></circle>
    <circle cx="-658.49" cy="45168.89" r="0.778688524590164" style="stroke: gray; fill: red;"></circle>
    <circle cx="-698.12" cy="178229.69" r="5.860655737704918" style="stroke: gray; fill: red;"></circle>
    <circle cx="206.85" cy="-3732.34" r="0" style="stroke: gray; fill: red;"></circle>
    <circle cx="217.13" cy="158042.37" r="5.286885245901639" style="stroke: gray; fill: red;"></circle>
    <circle cx="181.92" cy="157.84" r="7.295081967213115" style="stroke: gray; fill: red;"></circle>
    <circle cx="63623.41" cy="-90928.06" r="0.45081967213114754" style="stroke: gray; fill: red;"></circle>
    <circle cx="85086.14" cy="95371.23" r="0.5737704918032787" style="stroke: gray; fill: red;"></circle>
    <circle cx="-72453.46" cy="93492.46" r="1.3114754098360655" style="stroke: gray; fill: red;"></circle>
    <circle cx="93644.26" cy="-40.89" r="2.622950819672131" style="stroke: gray; fill: red;"></circle>
    <circle cx="809.85" cy="111689.03" r="11.926229508196721" style="stroke: gray; fill: red;"></circle>
    <circle cx="-12504.36" cy="210.98" r="0.20491803278688525" style="stroke: gray; fill: red;"></circle>
    <circle cx="113.31" cy="2185.16" r="0.040983606557377046" style="stroke: gray; fill: red;"></circle>
    <circle cx="141.37" cy="10553.89" r="0.24590163934426232" style="stroke: gray; fill: red;"></circle>
    <circle cx="38.7" cy="90457.15" r="9.426229508196721" style="stroke: gray; fill: red;"></circle>
    <circle cx="145.07" cy="147.23" r="6.844262295081967" style="stroke: gray; fill: red;"></circle>
    <circle cx="168.66" cy="126.89" r="7.663934426229508" style="stroke: gray; fill: red;"></circle>
    <circle cx="-19096.23" cy="221.19" r="0.9836065573770493" style="stroke: gray; fill: red;"></circle>
    <circle cx="94.61" cy="133.86" r="4.672131147540984" style="stroke: gray; fill: red;"></circle>
    <circle cx="104290.82" cy="44992.23" r="0.12295081967213116" style="stroke: gray; fill: red;"></circle>
    <circle cx="121690.97" cy="213.81" r="1.7622950819672132" style="stroke: gray; fill: red;"></circle>
    <circle cx="14336.59" cy="160.06" r="0.819672131147541" style="stroke: gray; fill: red;"></circle>
    <circle cx="168.27" cy="338.76" r="3.360655737704918" style="stroke: gray; fill: red;"></circle>
    <circle cx="48435.91" cy="1397.11" r="0.6147540983606556" style="stroke: gray; fill: red;"></circle>
    <circle cx="180.66" cy="20599.82" r="0.8606557377049181" style="stroke: gray; fill: red;"></circle>
    <circle cx="-25484.49" cy="-1066" r="0.6147540983606556" style="stroke: gray; fill: red;"></circle>
    <circle cx="-1047.2" cy="-90312.85" r="5.204918032786885" style="stroke: gray; fill: red;"></circle>
    <circle cx="-1077.76" cy="32442.58" r="0.6557377049180327" style="stroke: gray; fill: red;"></circle>
    <circle cx="212.89" cy="223.28" r="8.89344262295082" style="stroke: gray; fill: red;"></circle>
    <circle cx="-220.48" cy="-39721.64" r="1.0245901639344264" style="stroke: gray; fill: red;"></circle>
    <circle cx="89.22" cy="195.98" r="3.4426229508196724" style="stroke: gray; fill: red;"></circle>
    <circle cx="78.33" cy="263.79" r="3.2377049180327866" style="stroke: gray; fill: red;"></circle>
    <circle cx="-6909.1" cy="196.4" r="0.3688524590163934" style="stroke: gray; fill: red;"></circle>
    <circle cx="199.54" cy="111.83" r="4.467213114754099" style="stroke: gray; fill: red;"></circle>
    <circle cx="-72995.63" cy="-125.25" r="1.7622950819672132" style="stroke: gray; fill: red;"></circle>
    <circle cx="119.46" cy="185.8" r="10.40983606557377" style="stroke: gray; fill: red;"></circle>
    <circle cx="141.12" cy="-56713.09" r="1.0245901639344264" style="stroke: gray; fill: red;"></circle>
    <circle cx="228.14" cy="175.42" r="3.155737704918033" style="stroke: gray; fill: red;"></circle>
    <circle cx="336.02" cy="135010.84" r="5.983606557377049" style="stroke: gray; fill: red;"></circle>
    <circle cx="-1940.32" cy="-108262.22" r="4.877049180327869" style="stroke: gray; fill: red;"></circle>
    <circle cx="170452.61" cy="-2841.5" r="0.5737704918032787" style="stroke: gray; fill: red;"></circle>
    <circle cx="103.83" cy="-10058.68" r="0.08196721311475409" style="stroke: gray; fill: red;"></circle>
    <circle cx="79658.08" cy="238.25" r="3.6885245901639343" style="stroke: gray; fill: red;"></circle>
    <circle cx="76926.08" cy="146873.33" r="0.9426229508196722" style="stroke: gray; fill: red;"></circle>
    <circle cx="157.11" cy="188.44" r="6.639344262295082" style="stroke: gray; fill: red;"></circle>
</svg>