<svg version="1.0" xmlns="http://www.w3.org/2000/svg" width="450" height="450">
    <circle cx="84211.46" cy="132921.75" r="1.1818181818181817" style="stroke: gray; fill: red;"></circle>
    <circle cx="184.74" cy="137382.04" r="6.818181818181818" style="stroke: gray; fill: red;"></circle>
    <circle cx="196.71" cy="320.3" r="4.545454545454546" style="stroke: gray; fill: red;"></circle>
    <circle cx="76496.15" cy="-94506.33" r="3.727272727272727" style="stroke: gray; fill: red;"></circle>
    <circle cx="163.47" cy="-22104.5" r="0.7272727272727273" style="stroke: gray; fill: red;"></circle>
    <circle cx="134.11" cy="255.61" r="2.1818181818181817" style="stroke: gray; fill: red;"></circle>
    <circle cx="150.85" cy="349.01" r="3.2727272727272725" style="stroke: gray; fill: red;"></circle>
    <circle cx="-108.66" cy="179639.03" r="7.636363636363636" style="stroke: gray; fill: red;"></circle>
    <circle cx="157.82" cy="135.82" r="15" style="stroke: gray; fill: red;"></circle>
    <circle cx="10006.2" cy="132.19" r="0.18181818181818182" style="stroke: gray; fill: red;"></circle>
    <circle cx="-43.13" cy="90549.24" r="9.090909090909092" style="stroke: gray; fill: red;"></circle>
    <circle cx="-70665.44" cy="95708.58" r="1.0909090909090908" style="stroke: gray; fill: red;"></circle>
    <circle cx="17915.88" cy="134.7" r="0.8181818181818181" style="stroke: gray; fill: red;"></circle>
    <circle cx="184.99" cy="152.7" r="10.090909090909092" style="stroke: gray; fill: red;"></circle>
    <circle cx="47182.02" cy="198.64" r="1.7272727272727273" style="stroke: gray; fill: red;"></circle>
    <circle cx="301.12" cy="204.34" r="1.3636363636363638" style="stroke: gray; fill: red;"></circle>
    <circle cx="-77720.35" cy="189.17" r="1.5454545454545454" style="stroke: gray; fill: red;"></circle>
    <circle cx="114.24" cy="113.77" r="9.090909090909092" style="stroke: gray; fill: red;"></circle>
    <circle cx="-554.88" cy="-44418.16" r="1.1818181818181817" style="stroke: gray; fill: red;"></circle>
    <circle cx="94539.89" cy="192.65" r="2.5454545454545454" style="stroke: gray; fill: red;"></circle>
    <circle cx="1290.72" cy="163077.89" r="8.454545454545453" style="stroke: gray; fill: red;"></circle>
    <circle cx="153" cy="178.01" r="7.090909090909091" style="stroke: gray; fill: red;"></circle>
    <circle cx="-1310.58" cy="49829.67" r="0.9090909090909092" style="stroke: gray; fill: red;"></circle>
    <circle cx="29789.51" cy="154.23" r="1.0909090909090908" style="stroke: gray; fill: red;"></circle>
    <circle cx="114.01" cy="2258.13" r="0" style="stroke: gray; fill: red;"></circle>
    <circle cx="-21676.03" cy="249.79" r="1.1818181818181817" style="stroke: gray; fill: red;"></circle>
    <circle cx="181.6" cy="25313.7" r="2" style="stroke: gray; fill: red;"></circle>
    <circle cx="121.25" cy="185.84" r="6.909090909090909" style="stroke: gray; fill: red;"></circle>
    <circle cx="-23.81" cy="110494.89" r="10.454545454545455" style="stroke: gray; fill: red;"></circle>
    <circle cx="170945.8" cy="-9188.99" r="0.8181818181818181" style="stroke: gray; fill: red;"></circle>
    <circle cx="-11990.36" cy="200.67" r="0.6363636363636364" style="stroke: gray; fill: red;"></circle>
    <circle cx="168.39" cy="-68223.75" r="1.3636363636363638" style="stroke: gray; fill: red;"></circle>
    <circle cx="91.3" cy="152.35" r="3.2727272727272725" style="stroke: gray; fill: red;"></circle>
    <circle cx="217.23" cy="199.15" r="12.636363636363637" style="stroke: gray; fill: red;"></circle>
    <circle cx="662.27" cy="149868.84" r="6.090909090909091" style="stroke: gray; fill: red;"></circle>
    <circle cx="197.64" cy="-6504.73" r="0.09090909090909091" style="stroke: gray; fill: red;"></circle>
    <circle cx="78485.05" cy="803.32" r="11.09090909090909" style="stroke: gray; fill: red;"></circle>
    <circle cx="-1061.17" cy="-96991.25" r="11.545454545454545" style="stroke: gray; fill: red;"></circle>
    <circle cx="142.6" cy="220.25" r="12.272727272727273" style="stroke: gray; fill: red;"></circle>
    <circle cx="201.11" cy="109.92" r="9" style="stroke: gray; fill: red;"></circle>
    <circle cx="89.39" cy="207.16" r="2.7272727272727275" style="stroke: gray; fill: red;"></circle>
    <circle cx="-5379.88" cy="216.54" r="0.09090909090909091" style="stroke: gray; fill: red;"></circle>
    <circle cx="149.87" cy="300.03" r="1.909090909090909" style="stroke: gray; fill: red;"></circle>
    <circle cx="35814.9" cy="117174.92" r="0.9090909090909092" style="stroke: gray; fill: red;"></circle>
    <circle cx="-39043.34" cy="160.51" r="1.0909090909090908" style="stroke: gray; fill: red;"></circle>
    <circle cx="87.82" cy="274.97" r="1.5454545454545454" style="stroke: gray; fill: red;"></circle>
    <circle cx="69" cy="123497.81" r="6.636363636363637" style="stroke: gray; fill: red;"></circle>
    <circle cx="212.66" cy="240.96" r="6.7272727272727275" style="stroke: gray; fill: red;"></circle>
    <circle cx="177.8" cy="217.5" r="3.181818181818182" style="stroke: gray; fill: red;"></circle>
    <circle cx="124097.97" cy="4808.05" r="1.6363636363636362" style="stroke: gray; fill: red;"></circle>
</svg>