<svg version="1.0" xmlns="http://www.w3.org/2000/svg" width="450" height="450">
    <circle cx="193.11" cy="202.79" r="1.889763779527559" style="stroke: gray; fill: red;"></circle>
    <circle cx="231.73" cy="402.05" r="2.716535433070866" style="stroke: gray; fill: red;"></circle>
    <circle cx="197.68" cy="253.25" r="0.3543307086614173" style="stroke: gray; fill: red;"></circle>
    <circle cx="214.08" cy="277.62" r="3.425196850393701" style="stroke: gray; fill: red;"></circle>
    <circle cx="196.43" cy="156.18" r="7.322834645669292" style="stroke: gray; fill: red;"></circle>
    <circle cx="363.81" cy="133.21" r="4.37007874015748" style="stroke: gray; fill: red;"></circle>
    <circle cx="212.58" cy="267.75" r="1.2992125984251968" style="stroke: gray; fill: red;"></circle>
    <circle cx="197.4" cy="231.36" r="2.5984251968503935" style="stroke: gray; fill: red;"></circle>
    <circle cx="292.77" cy="73.93" r="6.732283464566929" style="stroke: gray; fill: red;"></circle>
    <circle cx="131.03" cy="178.44" r="2.0078740157480315" style="stroke: gray; fill: red;"></circle>
    <circle cx="235.73" cy="345.36" r="5.669291338582677" style="stroke: gray; fill: red;"></circle>
    <circle cx="397.96" cy="196.81" r="4.960629921259843" style="stroke: gray; fill: red;"></circle>
    <circle cx="402.87" cy="98.81" r="3.188976377952756" style="stroke: gray; fill: red;"></circle>
    <circle cx="235.69" cy="286.56" r="2.5984251968503935" style="stroke: gray; fill: red;"></circle>
    <circle cx="252.98" cy="309.19" r="4.133858267716535" style="stroke: gray; fill: red;"></circle>
    <circle cx="304.79" cy="130.24" r="15" style="stroke: gray; fill: red;"></circle>
    <circle cx="183.53" cy="176.88" r="10.039370078740157" style="stroke: gray; fill: red;"></circle>
    <circle cx="223.58" cy="154.45" r="0.8267716535433071" style="stroke: gray; fill: red;"></circle>
    <circle cx="216.31" cy="294.06" r="3.188976377952756" style="stroke: gray; fill: red;"></circle>
    <circle cx="207.36" cy="246.7" r="0.5905511811023622" style="stroke: gray; fill: red;"></circle>
    <circle cx="320.59" cy="203.91" r="7.322834645669292" style="stroke: gray; fill: red;"></circle>
    <circle cx="274.86" cy="358.26" r="4.960629921259843" style="stroke: gray; fill: red;"></circle>
    <circle cx="253.11" cy="282.04" r="2.4803149606299213" style="stroke: gray; fill: red;"></circle>
    <circle cx="331.37" cy="357.35" r="2.5984251968503935" style="stroke: gray; fill: red;"></circle>
    <circle cx="203.54" cy="266.1" r="0.7086614173228346" style="stroke: gray; fill: red;"></circle>
    <circle cx="154.48" cy="176.84" r="2.1259842519685037" style="stroke: gray; fill: red;"></circle>
    <circle cx="260.18" cy="140.04" r="5.314960629921259" style="stroke: gray; fill: red;"></circle>
    <circle cx="245.32" cy="50.69" r="2.1259842519685037" style="stroke: gray; fill: red;"></circle>
    <circle cx="183.74" cy="222.76" r="0.47244094488188976" style="stroke: gray; fill: red;"></circle>
    <circle cx="194.1" cy="354.9" r="2.3622047244094486" style="stroke: gray; fill: red;"></circle>
    <circle cx="351.58" cy="84.2" r="7.677165354330708" style="stroke: gray; fill: red;"></circle>
    <circle cx="344.53" cy="281.65" r="0.8267716535433071" style="stroke: gray; fill: red;"></circle>
    <circle cx="302.95" cy="152.71" r="7.440944881889764" style="stroke: gray; fill: red;"></circle>
    <circle cx="177.55" cy="93.72" r="1.7716535433070866" style="stroke: gray; fill: red;"></circle>
    <circle cx="113.44" cy="115.43" r="0" style="stroke: gray; fill: red;"></circle>
</svg>