<svg version="1.0" xmlns="http://www.w3.org/2000/svg" width="450" height="450">
    <circle cx="257.9" cy="132.69" r="5.7534246575342465" style="stroke: gray; fill: red;"></circle>
    <circle cx="289.49" cy="376.55" r="4.006849315068493" style="stroke: gray; fill: red;"></circle>
    <circle cx="249.6" cy="290.96" r="13.664383561643834" style="stroke: gray; fill: red;"></circle>
    <circle cx="355.55" cy="288.76" r="1.1301369863013697" style="stroke: gray; fill: red;"></circle>
    <circle cx="151.75" cy="79.81" r="0.7191780821917808" style="stroke: gray; fill: red;"></circle>
    <circle cx="191.01" cy="157.44" r="10.787671232876711" style="stroke: gray; fill: red;"></circle>
    <circle cx="319.18" cy="198.63" r="6.061643835616438" style="stroke: gray; fill: red;"></circle>
    <circle cx="294.67" cy="64.68" r="8.424657534246576" style="stroke: gray; fill: red;"></circle>
    <circle cx="369.53" cy="130.05" r="6.164383561643835" style="stroke: gray; fill: red;"></circle>
    <circle cx="251.14" cy="153.47" r="3.698630136986301" style="stroke: gray; fill: red;"></circle>
    <circle cx="252.97" cy="91.59" r="2.8767123287671232" style="stroke: gray; fill: red;"></circle>
    <circle cx="189.9" cy="192.23" r="2.9794520547945202" style="stroke: gray; fill: red;"></circle>
    <circle cx="183.67" cy="180.11" r="12.123287671232877" style="stroke: gray; fill: red;"></circle>
    <circle cx="249.65" cy="38.19" r="2.363013698630137" style="stroke: gray; fill: red;"></circle>
    <circle cx="120.64" cy="163.8" r="0.6164383561643836" style="stroke: gray; fill: red;"></circle>
    <circle cx="146.08" cy="95.37" r="1.2328767123287672" style="stroke: gray; fill: red;"></circle>
    <circle cx="86.58" cy="77.06" r="0.3082191780821918" style="stroke: gray; fill: red;"></circle>
    <circle cx="124.77" cy="115.76" r="0.7191780821917808" style="stroke: gray; fill: red;"></circle>
    <circle cx="29.5" cy="135.51" r="0" style="stroke: gray; fill: red;"></circle>
    <circle cx="188.26" cy="95.44" r="5.547945205479452" style="stroke: gray; fill: red;"></circle>
    <circle cx="304.66" cy="120.46" r="10.17123287671233" style="stroke: gray; fill: red;"></circle>
    <circle cx="193.75" cy="208.58" r="2.8767123287671232" style="stroke: gray; fill: red;"></circle>
    <circle cx="206.81" cy="155.12" r="8.732876712328768" style="stroke: gray; fill: red;"></circle>
    <circle cx="130.94" cy="180.48" r="4.931506849315069" style="stroke: gray; fill: red;"></circle>
    <circle cx="247.84" cy="338.31" r="8.21917808219178" style="stroke: gray; fill: red;"></circle>
    <circle cx="181.9" cy="171.36" r="7.602739726027398" style="stroke: gray; fill: red;"></circle>
    <circle cx="206.05" cy="356.47" r="6.883561643835616" style="stroke: gray; fill: red;"></circle>
    <circle cx="204.06" cy="254.93" r="7.191780821917808" style="stroke: gray; fill: red;"></circle>
    <circle cx="395.63" cy="201.41" r="2.8767123287671232" style="stroke: gray; fill: red;"></circle>
    <circle cx="216.73" cy="278.29" r="6.472602739726027" style="stroke: gray; fill: red;"></circle>
    <circle cx="148.74" cy="177.56" r="5.9589041095890405" style="stroke: gray; fill: red;"></circle>
    <circle cx="296.27" cy="148.49" r="15" style="stroke: gray; fill: red;"></circle>
    <circle cx="193.54" cy="228.62" r="6.267123287671233" style="stroke: gray; fill: red;"></circle>
    <circle cx="162.06" cy="175.22" r="5.342465753424658" style="stroke: gray; fill: red;"></circle>
    <circle cx="359.62" cy="80.85" r="12.123287671232877" style="stroke: gray; fill: red;"></circle>
</svg>