<svg version="1.0" xmlns="http://www.w3.org/2000/svg" width="450" height="450">
    <circle cx="260.77" cy="93.2" r="3.676470588235294" style="stroke: gray; fill: red;"></circle>
    <circle cx="243.56" cy="379.03" r="14.46078431372549" style="stroke: gray; fill: red;"></circle>
    <circle cx="219.62" cy="286.28" r="15" style="stroke: gray; fill: red;"></circle>
    <circle cx="359.47" cy="285.49" r="2.156862745098039" style="stroke: gray; fill: red;"></circle>
    <circle cx="155.54" cy="72.7" r="0.14705882352941177" style="stroke: gray; fill: red;"></circle>
    <circle cx="196.19" cy="156.17" r="11.372549019607842" style="stroke: gray; fill: red;"></circle>
    <circle cx="117.08" cy="131.08" r="0.049019607843137254" style="stroke: gray; fill: red;"></circle>
    <circle cx="144.21" cy="117.41" r="0.19607843137254902" style="stroke: gray; fill: red;"></circle>
    <circle cx="317.49" cy="138.27" r="14.411764705882353" style="stroke: gray; fill: red;"></circle>
    <circle cx="296.29" cy="70.49" r="4.803921568627451" style="stroke: gray; fill: red;"></circle>
    <circle cx="397.38" cy="98.88" r="5.490196078431373" style="stroke: gray; fill: red;"></circle>
    <circle cx="260.25" cy="142.09" r="8.382352941176471" style="stroke: gray; fill: red;"></circle>
    <circle cx="300.18" cy="112.36" r="8.431372549019608" style="stroke: gray; fill: red;"></circle>
    <circle cx="251.13" cy="299.86" r="13.186274509803921" style="stroke: gray; fill: red;"></circle>
    <circle cx="209" cy="344.81" r="9.313725490196079" style="stroke: gray; fill: red;"></circle>
    <circle cx="207.05" cy="262.95" r="8.03921568627451" style="stroke: gray; fill: red;"></circle>
    <circle cx="194.73" cy="229.65" r="6.519607843137255" style="stroke: gray; fill: red;"></circle>
    <circle cx="191.64" cy="198.08" r="5.196078431372549" style="stroke: gray; fill: red;"></circle>
    <circle cx="213.95" cy="50.13" r="0.9803921568627452" style="stroke: gray; fill: red;"></circle>
    <circle cx="145.55" cy="177.89" r="7.843137254901961" style="stroke: gray; fill: red;"></circle>
    <circle cx="145.81" cy="91.22" r="0.7843137254901961" style="stroke: gray; fill: red;"></circle>
    <circle cx="72.76" cy="74.86" r="0" style="stroke: gray; fill: red;"></circle>
    <circle cx="182.62" cy="176.42" r="14.411764705882353" style="stroke: gray; fill: red;"></circle>
    <circle cx="290.17" cy="45.38" r="2.2058823529411766" style="stroke: gray; fill: red;"></circle>
    <circle cx="38.43" cy="127.38" r="0.049019607843137254" style="stroke: gray; fill: red;"></circle>
    <circle cx="119.31" cy="92.55" r="0.19607843137254902" style="stroke: gray; fill: red;"></circle>
    <circle cx="115.2" cy="161.6" r="0.4411764705882353" style="stroke: gray; fill: red;"></circle>
    <circle cx="187.7" cy="97.1" r="3.235294117647059" style="stroke: gray; fill: red;"></circle>
    <circle cx="299.43" cy="146.93" r="14.411764705882353" style="stroke: gray; fill: red;"></circle>
    <circle cx="225.36" cy="155.01" r="3.1862745098039214" style="stroke: gray; fill: red;"></circle>
    <circle cx="260.62" cy="40.63" r="2.058823529411765" style="stroke: gray; fill: red;"></circle>
    <circle cx="315.81" cy="358.99" r="7.598039215686274" style="stroke: gray; fill: red;"></circle>
    <circle cx="395.32" cy="193.67" r="7.598039215686274" style="stroke: gray; fill: red;"></circle>
    <circle cx="322.82" cy="203.38" r="9.117647058823529" style="stroke: gray; fill: red;"></circle>
    <circle cx="352.96" cy="89.31" r="12.205882352941176" style="stroke: gray; fill: red;"></circle>
</svg>