<svg version="1.0" xmlns="http://www.w3.org/2000/svg" width="450" height="450">
    <circle cx="141.02" cy="98.18" r="0" style="stroke: gray; fill: red;"></circle>
    <circle cx="188.17" cy="98.1" r="0.26690391459074736" style="stroke: gray; fill: red;"></circle>
    <circle cx="232.36" cy="340.46" r="3.3629893238434163" style="stroke: gray; fill: red;"></circle>
    <circle cx="216.66" cy="294.08" r="6.725978647686833" style="stroke: gray; fill: red;"></circle>
    <circle cx="204.25" cy="257.39" r="2.0284697508896796" style="stroke: gray; fill: red;"></circle>
    <circle cx="180.91" cy="168.82" r="4.4839857651245545" style="stroke: gray; fill: red;"></circle>
    <circle cx="275.27" cy="41.36" r="2.188612099644128" style="stroke: gray; fill: red;"></circle>
    <circle cx="105.72" cy="151.98" r="0.05338078291814946" style="stroke: gray; fill: red;"></circle>
    <circle cx="256.66" cy="145.62" r="3.4163701067615655" style="stroke: gray; fill: red;"></circle>
    <circle cx="213.74" cy="52.54" r="0.26690391459074736" style="stroke: gray; fill: red;"></circle>
    <circle cx="352.8" cy="337.67" r="3.202846975088968" style="stroke: gray; fill: red;"></circle>
    <circle cx="364.91" cy="141.19" r="2.775800711743772" style="stroke: gray; fill: red;"></circle>
    <circle cx="310.57" cy="163.58" r="3.1494661921708182" style="stroke: gray; fill: red;"></circle>
    <circle cx="358.88" cy="74.82" r="3.2562277580071175" style="stroke: gray; fill: red;"></circle>
    <circle cx="225.25" cy="396.07" r="7.526690391459075" style="stroke: gray; fill: red;"></circle>
    <circle cx="194.3" cy="225.4" r="2.7224199288256226" style="stroke: gray; fill: red;"></circle>
    <circle cx="213.07" cy="275.89" r="4.857651245551602" style="stroke: gray; fill: red;"></circle>
    <circle cx="340.21" cy="103.02" r="2.4555160142348753" style="stroke: gray; fill: red;"></circle>
    <circle cx="223.34" cy="271.92" r="0.9074733096085409" style="stroke: gray; fill: red;"></circle>
    <circle cx="190.22" cy="189.85" r="3.2562277580071175" style="stroke: gray; fill: red;"></circle>
    <circle cx="264.86" cy="93.14" r="2.0284697508896796" style="stroke: gray; fill: red;"></circle>
    <circle cx="398.08" cy="202.55" r="5.2313167259786475" style="stroke: gray; fill: red;"></circle>
    <circle cx="402.09" cy="97.62" r="3.1494661921708182" style="stroke: gray; fill: red;"></circle>
    <circle cx="234.76" cy="287.49" r="1.387900355871886" style="stroke: gray; fill: red;"></circle>
    <circle cx="251.68" cy="308.75" r="2.6690391459074734" style="stroke: gray; fill: red;"></circle>
    <circle cx="296.49" cy="110.37" r="4.1637010676156585" style="stroke: gray; fill: red;"></circle>
    <circle cx="214.25" cy="153.22" r="2.775800711743772" style="stroke: gray; fill: red;"></circle>
    <circle cx="327.52" cy="211.66" r="6.245551601423488" style="stroke: gray; fill: red;"></circle>
    <circle cx="264.75" cy="350.39" r="4.750889679715302" style="stroke: gray; fill: red;"></circle>
    <circle cx="253.58" cy="277.29" r="1.387900355871886" style="stroke: gray; fill: red;"></circle>
    <circle cx="297.12" cy="72.68" r="1.8149466192170818" style="stroke: gray; fill: red;"></circle>
    <circle cx="192.84" cy="341.61" r="2.402135231316726" style="stroke: gray; fill: red;"></circle>
    <circle cx="308.7" cy="137.07" r="15" style="stroke: gray; fill: red;"></circle>
    <circle cx="301.08" cy="368.81" r="3.5765124555160144" style="stroke: gray; fill: red;"></circle>
    <circle cx="288.15" cy="142.54" r="2.3487544483985765" style="stroke: gray; fill: red;"></circle>
</svg>