<svg version="1.0" xmlns="http://www.w3.org/2000/svg" width="450" height="450">
    <circle cx="250.07" cy="115.34" r="0.8823529411764706" style="stroke: gray; fill: red;"></circle>
    <circle cx="226.89" cy="395" r="6.617647058823529" style="stroke: gray; fill: red;"></circle>
    <circle cx="218.53" cy="284.9" r="10.147058823529413" style="stroke: gray; fill: red;"></circle>
    <circle cx="250.28" cy="295.6" r="7.764705882352942" style="stroke: gray; fill: red;"></circle>
    <circle cx="150.2" cy="74.54" r="0.3529411764705882" style="stroke: gray; fill: red;"></circle>
    <circle cx="197.46" cy="152.53" r="5.11764705882353" style="stroke: gray; fill: red;"></circle>
    <circle cx="144.9" cy="118.38" r="0.3529411764705882" style="stroke: gray; fill: red;"></circle>
    <circle cx="135.29" cy="138.49" r="0" style="stroke: gray; fill: red;"></circle>
    <circle cx="306.63" cy="141.33" r="15" style="stroke: gray; fill: red;"></circle>
    <circle cx="306.78" cy="107.51" r="3.882352941176471" style="stroke: gray; fill: red;"></circle>
    <circle cx="396.8" cy="83.82" r="3.441176470588235" style="stroke: gray; fill: red;"></circle>
    <circle cx="249.74" cy="148.1" r="2.558823529411765" style="stroke: gray; fill: red;"></circle>
    <circle cx="272.61" cy="86.19" r="2.558823529411765" style="stroke: gray; fill: red;"></circle>
    <circle cx="272.19" cy="356.61" r="6.970588235294118" style="stroke: gray; fill: red;"></circle>
    <circle cx="204.98" cy="341.39" r="5.470588235294118" style="stroke: gray; fill: red;"></circle>
    <circle cx="204.5" cy="255.69" r="4.0588235294117645" style="stroke: gray; fill: red;"></circle>
    <circle cx="193.09" cy="224.67" r="3.3529411764705883" style="stroke: gray; fill: red;"></circle>
    <circle cx="187.94" cy="186.5" r="4.852941176470589" style="stroke: gray; fill: red;"></circle>
    <circle cx="212.03" cy="43.06" r="0.4411764705882353" style="stroke: gray; fill: red;"></circle>
    <circle cx="154.3" cy="176.41" r="3.6176470588235294" style="stroke: gray; fill: red;"></circle>
    <circle cx="145.08" cy="95.12" r="0.5294117647058824" style="stroke: gray; fill: red;"></circle>
    <circle cx="103.02" cy="73.74" r="0.1764705882352941" style="stroke: gray; fill: red;"></circle>
    <circle cx="184.43" cy="171.06" r="6" style="stroke: gray; fill: red;"></circle>
    <circle cx="296.54" cy="58.93" r="3.0882352941176467" style="stroke: gray; fill: red;"></circle>
    <circle cx="35.45" cy="121.68" r="0.08823529411764705" style="stroke: gray; fill: red;"></circle>
    <circle cx="109.23" cy="109.44" r="0.08823529411764705" style="stroke: gray; fill: red;"></circle>
    <circle cx="126.58" cy="173.9" r="1.7647058823529411" style="stroke: gray; fill: red;"></circle>
    <circle cx="188.05" cy="98.04" r="1.5" style="stroke: gray; fill: red;"></circle>
    <circle cx="272.8" cy="145.46" r="3.264705882352941" style="stroke: gray; fill: red;"></circle>
    <circle cx="222.67" cy="153.31" r="1.6764705882352942" style="stroke: gray; fill: red;"></circle>
    <circle cx="263.14" cy="38.11" r="1.147058823529412" style="stroke: gray; fill: red;"></circle>
    <circle cx="357.46" cy="336.41" r="3.7941176470588234" style="stroke: gray; fill: red;"></circle>
    <circle cx="394.25" cy="199.79" r="4.676470588235294" style="stroke: gray; fill: red;"></circle>
    <circle cx="324.87" cy="205.88" r="5.5588235294117645" style="stroke: gray; fill: red;"></circle>
    <circle cx="354.33" cy="99.52" r="8.029411764705882" style="stroke: gray; fill: red;"></circle>
</svg>