<svg version="1.0" xmlns="http://www.w3.org/2000/svg" width="450" height="450">
    <circle cx="155.89" cy="176.92" r="5.034965034965035" style="stroke: gray; fill: red;"></circle>
    <circle cx="308.46" cy="136.86" r="15" style="stroke: gray; fill: red;"></circle>
    <circle cx="271.33" cy="353.54" r="3.8811188811188813" style="stroke: gray; fill: red;"></circle>
    <circle cx="290.99" cy="142.96" r="6.293706293706293" style="stroke: gray; fill: red;"></circle>
    <circle cx="349.05" cy="76.06" r="3.0419580419580416" style="stroke: gray; fill: red;"></circle>
    <circle cx="162" cy="94.24" r="3.1468531468531467" style="stroke: gray; fill: red;"></circle>
    <circle cx="400.86" cy="112.01" r="0.7342657342657343" style="stroke: gray; fill: red;"></circle>
    <circle cx="391.23" cy="174.93" r="1.5734265734265733" style="stroke: gray; fill: red;"></circle>
    <circle cx="271.44" cy="398.12" r="1.2587412587412588" style="stroke: gray; fill: red;"></circle>
    <circle cx="204.21" cy="259.95" r="3.6713286713286717" style="stroke: gray; fill: red;"></circle>
    <circle cx="119.59" cy="169.57" r="1.8881118881118883" style="stroke: gray; fill: red;"></circle>
    <circle cx="191.5" cy="201.14" r="3.986013986013986" style="stroke: gray; fill: red;"></circle>
    <circle cx="338.63" cy="351.48" r="2.202797202797203" style="stroke: gray; fill: red;"></circle>
    <circle cx="393.64" cy="69.55" r="0" style="stroke: gray; fill: red;"></circle>
    <circle cx="313.7" cy="103.53" r="1.048951048951049" style="stroke: gray; fill: red;"></circle>
    <circle cx="234.48" cy="340.38" r="3.5664335664335662" style="stroke: gray; fill: red;"></circle>
    <circle cx="246.79" cy="284.73" r="5.664335664335664" style="stroke: gray; fill: red;"></circle>
    <circle cx="185.02" cy="174.59" r="13.426573426573427" style="stroke: gray; fill: red;"></circle>
    <circle cx="195.09" cy="228.96" r="3.7762237762237767" style="stroke: gray; fill: red;"></circle>
    <circle cx="265.88" cy="40.94" r="1.5734265734265733" style="stroke: gray; fill: red;"></circle>
    <circle cx="213.4" cy="78.68" r="1.5734265734265733" style="stroke: gray; fill: red;"></circle>
    <circle cx="251.75" cy="314.19" r="3.5664335664335662" style="stroke: gray; fill: red;"></circle>
    <circle cx="357.67" cy="147.89" r="0.5244755244755245" style="stroke: gray; fill: red;"></circle>
    <circle cx="255.36" cy="142.35" r="5.979020979020979" style="stroke: gray; fill: red;"></circle>
    <circle cx="355.2" cy="112.45" r="1.7832167832167831" style="stroke: gray; fill: red;"></circle>
    <circle cx="309.24" cy="170.41" r="2.5174825174825175" style="stroke: gray; fill: red;"></circle>
    <circle cx="218.46" cy="390.28" r="5.559440559440559" style="stroke: gray; fill: red;"></circle>
    <circle cx="294.38" cy="61.52" r="4.300699300699301" style="stroke: gray; fill: red;"></circle>
    <circle cx="329.31" cy="214.86" r="4.615384615384616" style="stroke: gray; fill: red;"></circle>
    <circle cx="204.31" cy="155.45" r="8.181818181818182" style="stroke: gray; fill: red;"></circle>
    <circle cx="215.19" cy="275.2" r="5.559440559440559" style="stroke: gray; fill: red;"></circle>
    <circle cx="276.56" cy="102.75" r="5.874125874125874" style="stroke: gray; fill: red;"></circle>
    <circle cx="367.96" cy="79.12" r="0.2097902097902098" style="stroke: gray; fill: red;"></circle>
    <circle cx="209.8" cy="304.96" r="7.4475524475524475" style="stroke: gray; fill: red;"></circle>
    <circle cx="403.29" cy="216.64" r="1.5734265734265733" style="stroke: gray; fill: red;"></circle>
</svg>