<svg version="1.0" xmlns="http://www.w3.org/2000/svg" width="450" height="450">
    <circle cx="129.45" cy="364.61" r="7.386934673366834" style="stroke: gray; fill: red;"></circle>
    <circle cx="89.07" cy="259.06" r="3.2412060301507535" style="stroke: gray; fill: red;"></circle>
    <circle cx="175.1" cy="240.16" r="15" style="stroke: gray; fill: red;"></circle>
    <circle cx="202.4" cy="282.11" r="12.135678391959798" style="stroke: gray; fill: red;"></circle>
    <circle cx="105.96" cy="298.15" r="2.2613065326633164" style="stroke: gray; fill: red;"></circle>
    <circle cx="240.37" cy="121.24" r="1.7336683417085428" style="stroke: gray; fill: red;"></circle>
    <circle cx="286.67" cy="353.06" r="2.8643216080402008" style="stroke: gray; fill: red;"></circle>
    <circle cx="215.67" cy="234.13" r="9.045226130653266" style="stroke: gray; fill: red;"></circle>
    <circle cx="256.67" cy="107.55" r="4.371859296482412" style="stroke: gray; fill: red;"></circle>
    <circle cx="237.33" cy="96.24" r="1.2814070351758793" style="stroke: gray; fill: red;"></circle>
    <circle cx="173.15" cy="361.29" r="4.899497487437186" style="stroke: gray; fill: red;"></circle>
    <circle cx="308.01" cy="162.26" r="4.974874371859296" style="stroke: gray; fill: red;"></circle>
    <circle cx="221.38" cy="149.58" r="6.557788944723618" style="stroke: gray; fill: red;"></circle>
    <circle cx="284.48" cy="165.51" r="8.442211055276381" style="stroke: gray; fill: red;"></circle>
    <circle cx="298.42" cy="281.58" r="14.698492462311558" style="stroke: gray; fill: red;"></circle>
    <circle cx="143.53" cy="324.83" r="1.7336683417085428" style="stroke: gray; fill: red;"></circle>
    <circle cx="349.95" cy="176.99" r="3.0150753768844223" style="stroke: gray; fill: red;"></circle>
    <circle cx="218.09" cy="203.56" r="4.824120603015076" style="stroke: gray; fill: red;"></circle>
    <circle cx="175.41" cy="183.44" r="6.85929648241206" style="stroke: gray; fill: red;"></circle>
    <circle cx="177.82" cy="254.48" r="4.522613065326633" style="stroke: gray; fill: red;"></circle>
    <circle cx="132.7" cy="239.47" r="1.0552763819095476" style="stroke: gray; fill: red;"></circle>
    <circle cx="184.54" cy="84.59" r="5.276381909547739" style="stroke: gray; fill: red;"></circle>
    <circle cx="197.29" cy="323.32" r="8.969849246231156" style="stroke: gray; fill: red;"></circle>
    <circle cx="88.37" cy="362.33" r="8.14070351758794" style="stroke: gray; fill: red;"></circle>
    <circle cx="146.13" cy="108.53" r="0.3768844221105528" style="stroke: gray; fill: red;"></circle>
    <circle cx="220.88" cy="173.92" r="11.683417085427136" style="stroke: gray; fill: red;"></circle>
    <circle cx="258.2" cy="246.44" r="4.974874371859296" style="stroke: gray; fill: red;"></circle>
    <circle cx="210.63" cy="104.52" r="4.824120603015076" style="stroke: gray; fill: red;"></circle>
    <circle cx="71.32" cy="325.06" r="3.4673366834170856" style="stroke: gray; fill: red;"></circle>
    <circle cx="273.2" cy="126.06" r="7.311557788944723" style="stroke: gray; fill: red;"></circle>
    <circle cx="254.68" cy="157.63" r="4.14572864321608" style="stroke: gray; fill: red;"></circle>
    <circle cx="305.77" cy="240.91" r="7.160804020100502" style="stroke: gray; fill: red;"></circle>
    <circle cx="285.24" cy="98.28" r="14.698492462311558" style="stroke: gray; fill: red;"></circle>
    <circle cx="158.5" cy="211.32" r="2.71356783919598" style="stroke: gray; fill: red;"></circle>
    <circle cx="374.6" cy="306.51" r="0" style="stroke: gray; fill: red;"></circle>
</svg>