<svg version="1.0" xmlns="http://www.w3.org/2000/svg" width="450" height="450">
    <circle cx="133.78" cy="366.29" r="0.4675324675324675" style="stroke: gray; fill: red;"></circle>
    <circle cx="241.26" cy="351.46" r="0" style="stroke: gray; fill: red;"></circle>
    <circle cx="74.83" cy="362.33" r="2.0259740259740258" style="stroke: gray; fill: red;"></circle>
    <circle cx="177.91" cy="357.94" r="0.6428571428571429" style="stroke: gray; fill: red;"></circle>
    <circle cx="322.98" cy="164.91" r="1.87012987012987" style="stroke: gray; fill: red;"></circle>
    <circle cx="217.67" cy="149.06" r="3.2727272727272725" style="stroke: gray; fill: red;"></circle>
    <circle cx="101.07" cy="366.4" r="1.4025974025974026" style="stroke: gray; fill: red;"></circle>
    <circle cx="214.16" cy="226.44" r="3.720779220779221" style="stroke: gray; fill: red;"></circle>
    <circle cx="330.02" cy="345.72" r="0.9935064935064934" style="stroke: gray; fill: red;"></circle>
    <circle cx="238.3" cy="117.3" r="1.0909090909090908" style="stroke: gray; fill: red;"></circle>
    <circle cx="112.03" cy="329.09" r="0.7207792207792209" style="stroke: gray; fill: red;"></circle>
    <circle cx="227.63" cy="169.54" r="5.512987012987013" style="stroke: gray; fill: red;"></circle>
    <circle cx="375.03" cy="211.47" r="0.48701298701298695" style="stroke: gray; fill: red;"></circle>
    <circle cx="69.02" cy="325.77" r="0.8961038961038961" style="stroke: gray; fill: red;"></circle>
    <circle cx="284.98" cy="301.76" r="0.05844155844155844" style="stroke: gray; fill: red;"></circle>
    <circle cx="223" cy="256.71" r="1.9285714285714284" style="stroke: gray; fill: red;"></circle>
    <circle cx="270.53" cy="132.26" r="4.227272727272727" style="stroke: gray; fill: red;"></circle>
    <circle cx="218.87" cy="192.66" r="2.62987012987013" style="stroke: gray; fill: red;"></circle>
    <circle cx="174.62" cy="242.6" r="15" style="stroke: gray; fill: red;"></circle>
    <circle cx="183.38" cy="84.43" r="3.8571428571428568" style="stroke: gray; fill: red;"></circle>
    <circle cx="282.28" cy="162.7" r="2.103896103896104" style="stroke: gray; fill: red;"></circle>
    <circle cx="149.11" cy="222.51" r="2.142857142857143" style="stroke: gray; fill: red;"></circle>
    <circle cx="156.1" cy="322.96" r="1.2662337662337662" style="stroke: gray; fill: red;"></circle>
    <circle cx="100.15" cy="254.85" r="3.5064935064935066" style="stroke: gray; fill: red;"></circle>
    <circle cx="211.38" cy="106.37" r="4.266233766233766" style="stroke: gray; fill: red;"></circle>
    <circle cx="248.64" cy="100.85" r="2.0454545454545454" style="stroke: gray; fill: red;"></circle>
    <circle cx="168.23" cy="188.64" r="3.954545454545454" style="stroke: gray; fill: red;"></circle>
    <circle cx="199.34" cy="175.14" r="1.8896103896103895" style="stroke: gray; fill: red;"></circle>
    <circle cx="200.13" cy="283.14" r="5.220779220779221" style="stroke: gray; fill: red;"></circle>
    <circle cx="98.55" cy="293.58" r="1.538961038961039" style="stroke: gray; fill: red;"></circle>
    <circle cx="197.25" cy="316.66" r="3.5844155844155843" style="stroke: gray; fill: red;"></circle>
    <circle cx="287.14" cy="100.36" r="3.5259740259740258" style="stroke: gray; fill: red;"></circle>
    <circle cx="251.57" cy="157.35" r="1.051948051948052" style="stroke: gray; fill: red;"></circle>
    <circle cx="140.03" cy="116.63" r="0.5454545454545454" style="stroke: gray; fill: red;"></circle>
    <circle cx="272.97" cy="245.43" r="1.6168831168831168" style="stroke: gray; fill: red;"></circle>
</svg>