<svg version="1.0" xmlns="http://www.w3.org/2000/svg" width="450" height="450">
    <circle cx="229.54" cy="348.2" r="1.0273972602739725" style="stroke: gray; fill: red;"></circle>
    <circle cx="116.19" cy="296.42" r="2.5684931506849313" style="stroke: gray; fill: red;"></circle>
    <circle cx="103.3" cy="366.43" r="5.342465753424658" style="stroke: gray; fill: red;"></circle>
    <circle cx="197.7" cy="309.06" r="8.21917808219178" style="stroke: gray; fill: red;"></circle>
    <circle cx="129.9" cy="367.16" r="6.061643835616438" style="stroke: gray; fill: red;"></circle>
    <circle cx="77.9" cy="314.76" r="3.698630136986301" style="stroke: gray; fill: red;"></circle>
    <circle cx="168.81" cy="327.01" r="4.417808219178083" style="stroke: gray; fill: red;"></circle>
    <circle cx="238.64" cy="158.78" r="5.547945205479452" style="stroke: gray; fill: red;"></circle>
    <circle cx="283.8" cy="98.89" r="12.32876712328767" style="stroke: gray; fill: red;"></circle>
    <circle cx="142.7" cy="108.68" r="2.4657534246575343" style="stroke: gray; fill: red;"></circle>
    <circle cx="77.18" cy="359.15" r="4.417808219178083" style="stroke: gray; fill: red;"></circle>
    <circle cx="200.6" cy="95.94" r="9.143835616438356" style="stroke: gray; fill: red;"></circle>
    <circle cx="214.83" cy="226.69" r="9.452054794520548" style="stroke: gray; fill: red;"></circle>
    <circle cx="267.33" cy="373.37" r="0" style="stroke: gray; fill: red;"></circle>
    <circle cx="252.34" cy="239.73" r="6.472602739726027" style="stroke: gray; fill: red;"></circle>
    <circle cx="288.21" cy="281.76" r="4.828767123287672" style="stroke: gray; fill: red;"></circle>
    <circle cx="336.62" cy="333.57" r="2.1575342465753424" style="stroke: gray; fill: red;"></circle>
    <circle cx="218.44" cy="142.16" r="6.164383561643835" style="stroke: gray; fill: red;"></circle>
    <circle cx="325.88" cy="108.56" r="1.8493150684931505" style="stroke: gray; fill: red;"></circle>
    <circle cx="240.12" cy="106.33" r="8.013698630136986" style="stroke: gray; fill: red;"></circle>
    <circle cx="280.4" cy="163.02" r="9.965753424657533" style="stroke: gray; fill: red;"></circle>
    <circle cx="201.31" cy="177.7" r="5.856164383561644" style="stroke: gray; fill: red;"></circle>
    <circle cx="173.98" cy="360.28" r="4.315068493150685" style="stroke: gray; fill: red;"></circle>
    <circle cx="132.23" cy="239.28" r="2.9794520547945202" style="stroke: gray; fill: red;"></circle>
    <circle cx="109.53" cy="331.17" r="4.315068493150685" style="stroke: gray; fill: red;"></circle>
    <circle cx="223.9" cy="182.2" r="8.63013698630137" style="stroke: gray; fill: red;"></circle>
    <circle cx="363.79" cy="203.22" r="2.2602739726027394" style="stroke: gray; fill: red;"></circle>
    <circle cx="298.95" cy="228.65" r="3.3904109589041096" style="stroke: gray; fill: red;"></circle>
    <circle cx="94.21" cy="259.84" r="5.136986301369863" style="stroke: gray; fill: red;"></circle>
    <circle cx="314.44" cy="163.72" r="7.5" style="stroke: gray; fill: red;"></circle>
    <circle cx="306.3" cy="271.17" r="9.246575342465754" style="stroke: gray; fill: red;"></circle>
    <circle cx="211.1" cy="269.81" r="10.068493150684931" style="stroke: gray; fill: red;"></circle>
    <circle cx="175.11" cy="243.77" r="15" style="stroke: gray; fill: red;"></circle>
    <circle cx="266.79" cy="127.66" r="9.760273972602741" style="stroke: gray; fill: red;"></circle>
    <circle cx="166.31" cy="196.08" r="6.883561643835616" style="stroke: gray; fill: red;"></circle>
</svg>