<svg version="1.0" xmlns="http://www.w3.org/2000/svg" width="450" height="450">
    <circle cx="316.54" cy="349.14" r="0.6290322580645161" style="stroke: gray; fill: red;"></circle>
    <circle cx="231.06" cy="167.07" r="8.419354838709678" style="stroke: gray; fill: red;"></circle>
    <circle cx="273.63" cy="160.72" r="8.516129032258064" style="stroke: gray; fill: red;"></circle>
    <circle cx="271.74" cy="124.46" r="8.370967741935484" style="stroke: gray; fill: red;"></circle>
    <circle cx="200.04" cy="240.6" r="0.0967741935483871" style="stroke: gray; fill: red;"></circle>
    <circle cx="220.25" cy="190.61" r="3.435483870967742" style="stroke: gray; fill: red;"></circle>
    <circle cx="78.11" cy="347.98" r="11.951612903225806" style="stroke: gray; fill: red;"></circle>
    <circle cx="224.5" cy="146.85" r="7.838709677419355" style="stroke: gray; fill: red;"></circle>
    <circle cx="174.08" cy="239.12" r="13.693548387096776" style="stroke: gray; fill: red;"></circle>
    <circle cx="248.28" cy="107.41" r="8.467741935483872" style="stroke: gray; fill: red;"></circle>
    <circle cx="222.48" cy="238.69" r="1.935483870967742" style="stroke: gray; fill: red;"></circle>
    <circle cx="296.19" cy="281.52" r="14.806451612903226" style="stroke: gray; fill: red;"></circle>
    <circle cx="200.09" cy="173.82" r="3.193548387096774" style="stroke: gray; fill: red;"></circle>
    <circle cx="354.62" cy="183.21" r="2.4193548387096775" style="stroke: gray; fill: red;"></circle>
    <circle cx="210.62" cy="104.16" r="6.483870967741935" style="stroke: gray; fill: red;"></circle>
    <circle cx="378.3" cy="293.14" r="0.0967741935483871" style="stroke: gray; fill: red;"></circle>
    <circle cx="287.21" cy="98.94" r="15" style="stroke: gray; fill: red;"></circle>
    <circle cx="159.92" cy="210.35" r="2.758064516129032" style="stroke: gray; fill: red;"></circle>
    <circle cx="173.35" cy="88.81" r="4.548387096774194" style="stroke: gray; fill: red;"></circle>
    <circle cx="303.03" cy="165.07" r="8.612903225806452" style="stroke: gray; fill: red;"></circle>
    <circle cx="305.21" cy="239.29" r="6.193548387096774" style="stroke: gray; fill: red;"></circle>
    <circle cx="162.72" cy="178.41" r="4.403225806451612" style="stroke: gray; fill: red;"></circle>
    <circle cx="175.99" cy="328.7" r="3.532258064516129" style="stroke: gray; fill: red;"></circle>
    <circle cx="215.55" cy="216.79" r="4.258064516129032" style="stroke: gray; fill: red;"></circle>
    <circle cx="170.92" cy="363.38" r="4.983870967741936" style="stroke: gray; fill: red;"></circle>
    <circle cx="179.57" cy="254.49" r="3.532258064516129" style="stroke: gray; fill: red;"></circle>
    <circle cx="228.96" cy="347.64" r="0" style="stroke: gray; fill: red;"></circle>
    <circle cx="196.04" cy="282.01" r="5.516129032258064" style="stroke: gray; fill: red;"></circle>
    <circle cx="260.41" cy="240.89" r="2.6129032258064515" style="stroke: gray; fill: red;"></circle>
    <circle cx="122.76" cy="364.03" r="11.903225806451614" style="stroke: gray; fill: red;"></circle>
    <circle cx="78.02" cy="272.03" r="2.6129032258064515" style="stroke: gray; fill: red;"></circle>
    <circle cx="117" cy="306.12" r="3.967741935483871" style="stroke: gray; fill: red;"></circle>
    <circle cx="200.58" cy="309.98" r="3.532258064516129" style="stroke: gray; fill: red;"></circle>
    <circle cx="221.57" cy="267.43" r="2.7096774193548385" style="stroke: gray; fill: red;"></circle>
    <circle cx="115.93" cy="252.01" r="3.629032258064516" style="stroke: gray; fill: red;"></circle>
</svg>