<svg version="1.0" xmlns="http://www.w3.org/2000/svg" width="450" height="450">
    <circle cx="239.84" cy="349.73" r="0.5005753739930955" style="stroke: gray; fill: red;"></circle>
    <circle cx="153.12" cy="327.18" r="1.5880322209436133" style="stroke: gray; fill: red;"></circle>
    <circle cx="104.96" cy="359.98" r="5.230149597238205" style="stroke: gray; fill: red;"></circle>
    <circle cx="197.4" cy="283.3" r="6.6455696202531644" style="stroke: gray; fill: red;"></circle>
    <circle cx="134.61" cy="366.63" r="4.574223245109321" style="stroke: gray; fill: red;"></circle>
    <circle cx="74.12" cy="316.67" r="3.1070195627157653" style="stroke: gray; fill: red;"></circle>
    <circle cx="194.9" cy="320.7" r="5.4890678941311855" style="stroke: gray; fill: red;"></circle>
    <circle cx="268.35" cy="159.4" r="4.833141542002302" style="stroke: gray; fill: red;"></circle>
    <circle cx="270.05" cy="124.46" r="7.025316455696203" style="stroke: gray; fill: red;"></circle>
    <circle cx="149.57" cy="104.55" r="1.5017261219792866" style="stroke: gray; fill: red;"></circle>
    <circle cx="76.3" cy="359.69" r="3.659378596087457" style="stroke: gray; fill: red;"></circle>
    <circle cx="201.34" cy="95.71" r="7.9746835443037964" style="stroke: gray; fill: red;"></circle>
    <circle cx="215.53" cy="223.9" r="6.990794016110471" style="stroke: gray; fill: red;"></circle>
    <circle cx="315.6" cy="352.79" r="0.7940161104718066" style="stroke: gray; fill: red;"></circle>
    <circle cx="257.48" cy="242.17" r="3.314154200230149" style="stroke: gray; fill: red;"></circle>
    <circle cx="280.39" cy="304.23" r="0.8975834292289988" style="stroke: gray; fill: red;"></circle>
    <circle cx="377.4" cy="300.55" r="0.3107019562715765" style="stroke: gray; fill: red;"></circle>
    <circle cx="223.24" cy="146.42" r="6.265822784810126" style="stroke: gray; fill: red;"></circle>
    <circle cx="283.98" cy="98.32" r="10.598388952819333" style="stroke: gray; fill: red;"></circle>
    <circle cx="245.28" cy="106.61" r="6.6455696202531644" style="stroke: gray; fill: red;"></circle>
    <circle cx="293.75" cy="165.48" r="6.9217491369390105" style="stroke: gray; fill: red;"></circle>
    <circle cx="212.51" cy="184.23" r="5.799769850402761" style="stroke: gray; fill: red;"></circle>
    <circle cx="174.69" cy="361.93" r="3.538550057537399" style="stroke: gray; fill: red;"></circle>
    <circle cx="175.88" cy="242.85" r="15" style="stroke: gray; fill: red;"></circle>
    <circle cx="113.74" cy="303.84" r="2.623705408515535" style="stroke: gray; fill: red;"></circle>
    <circle cx="230.12" cy="168.97" r="6.680092059838895" style="stroke: gray; fill: red;"></circle>
    <circle cx="371.81" cy="202.93" r="0.5350978135788262" style="stroke: gray; fill: red;"></circle>
    <circle cx="303.42" cy="230.66" r="2.9861910241657075" style="stroke: gray; fill: red;"></circle>
    <circle cx="95.73" cy="257.52" r="4.159953970080553" style="stroke: gray; fill: red;"></circle>
    <circle cx="325.95" cy="166.39" r="2.8135788262370545" style="stroke: gray; fill: red;"></circle>
    <circle cx="301.99" cy="273.39" r="11.271576524741082" style="stroke: gray; fill: red;"></circle>
    <circle cx="221.23" cy="261.47" r="3.745684695051784" style="stroke: gray; fill: red;"></circle>
    <circle cx="148.46" cy="223.44" r="2.8826237054085153" style="stroke: gray; fill: red;"></circle>
    <circle cx="330.57" cy="111.41" r="0" style="stroke: gray; fill: red;"></circle>
    <circle cx="171.45" cy="185.58" r="5.47180667433832" style="stroke: gray; fill: red;"></circle>
</svg>