<svg version="1.0" xmlns="http://www.w3.org/2000/svg" width="450" height="450">
    <circle cx="239.8" cy="348.25" r="0.6037151702786377" style="stroke: gray; fill: red;"></circle>
    <circle cx="132.2" cy="362.06" r="13.46749226006192" style="stroke: gray; fill: red;"></circle>
    <circle cx="80.89" cy="327.5" r="7.476780185758514" style="stroke: gray; fill: red;"></circle>
    <circle cx="287.51" cy="94.27" r="12.538699690402476" style="stroke: gray; fill: red;"></circle>
    <circle cx="216.15" cy="99.74" r="3.9473684210526314" style="stroke: gray; fill: red;"></circle>
    <circle cx="311.45" cy="353.59" r="0.09287925696594428" style="stroke: gray; fill: red;"></circle>
    <circle cx="287.04" cy="267.93" r="4.272445820433437" style="stroke: gray; fill: red;"></circle>
    <circle cx="277.09" cy="303.02" r="1.671826625386997" style="stroke: gray; fill: red;"></circle>
    <circle cx="334.95" cy="110.38" r="0.32507739938080493" style="stroke: gray; fill: red;"></circle>
    <circle cx="256" cy="112.03" r="9.3343653250774" style="stroke: gray; fill: red;"></circle>
    <circle cx="226.9" cy="164.57" r="3.761609907120743" style="stroke: gray; fill: red;"></circle>
    <circle cx="217.14" cy="192.89" r="5.572755417956657" style="stroke: gray; fill: red;"></circle>
    <circle cx="171.51" cy="362.66" r="8.173374613003096" style="stroke: gray; fill: red;"></circle>
    <circle cx="189.84" cy="273.71" r="6.269349845201238" style="stroke: gray; fill: red;"></circle>
    <circle cx="368.12" cy="209.96" r="0" style="stroke: gray; fill: red;"></circle>
    <circle cx="296.17" cy="165.42" r="15" style="stroke: gray; fill: red;"></circle>
    <circle cx="304.34" cy="284.45" r="9.473684210526315" style="stroke: gray; fill: red;"></circle>
    <circle cx="161.8" cy="229.59" r="3.808049535603715" style="stroke: gray; fill: red;"></circle>
    <circle cx="308.02" cy="256.7" r="5.851393188854489" style="stroke: gray; fill: red;"></circle>
    <circle cx="304.03" cy="228.42" r="7.291021671826625" style="stroke: gray; fill: red;"></circle>
    <circle cx="303.41" cy="274.32" r="8.312693498452012" style="stroke: gray; fill: red;"></circle>
    <circle cx="378.3" cy="296.64" r="0.9287925696594427" style="stroke: gray; fill: red;"></circle>
    <circle cx="176.39" cy="180.17" r="3.065015479876161" style="stroke: gray; fill: red;"></circle>
    <circle cx="277.29" cy="110.4" r="12.81733746130031" style="stroke: gray; fill: red;"></circle>
    <circle cx="252.6" cy="263.59" r="1.3003095975232197" style="stroke: gray; fill: red;"></circle>
    <circle cx="270.66" cy="163.51" r="7.848297213622292" style="stroke: gray; fill: red;"></circle>
    <circle cx="232.46" cy="143.06" r="6.5015479876160995" style="stroke: gray; fill: red;"></circle>
    <circle cx="157.26" cy="98.18" r="0.1393188854489164" style="stroke: gray; fill: red;"></circle>
    <circle cx="97.87" cy="363.13" r="9.102167182662539" style="stroke: gray; fill: red;"></circle>
    <circle cx="98.51" cy="274.71" r="4.922600619195046" style="stroke: gray; fill: red;"></circle>
    <circle cx="221.18" cy="264.14" r="3.9009287925696596" style="stroke: gray; fill: red;"></circle>
    <circle cx="331.84" cy="165.84" r="2.8328173374613" style="stroke: gray; fill: red;"></circle>
    <circle cx="212.75" cy="228.37" r="7.987616099071208" style="stroke: gray; fill: red;"></circle>
    <circle cx="256.68" cy="226.54" r="2.972136222910217" style="stroke: gray; fill: red;"></circle>
    <circle cx="190.78" cy="324.37" r="6.96594427244582" style="stroke: gray; fill: red;"></circle>
</svg>